%TF.GenerationSoftware,KiCad,Pcbnew,9.0.7*%
%TF.CreationDate,2026-04-05T15:03:37+03:00*%
%TF.ProjectId,USB-to-TTL Serial UART Converter,5553422d-746f-42d5-9454-4c2053657269,rev?*%
%TF.SameCoordinates,Original*%
%TF.FileFunction,Copper,L2,Bot*%
%TF.FilePolarity,Positive*%
%FSLAX46Y46*%
G04 Gerber Fmt 4.6, Leading zero omitted, Abs format (unit mm)*
G04 Created by KiCad (PCBNEW 9.0.7) date 2026-04-05 15:03:37*
%MOMM*%
%LPD*%
G01*
G04 APERTURE LIST*
G04 Aperture macros list*
%AMRoundRect*
0 Rectangle with rounded corners*
0 $1 Rounding radius*
0 $2 $3 $4 $5 $6 $7 $8 $9 X,Y pos of 4 corners*
0 Add a 4 corners polygon primitive as box body*
4,1,4,$2,$3,$4,$5,$6,$7,$8,$9,$2,$3,0*
0 Add four circle primitives for the rounded corners*
1,1,$1+$1,$2,$3*
1,1,$1+$1,$4,$5*
1,1,$1+$1,$6,$7*
1,1,$1+$1,$8,$9*
0 Add four rect primitives between the rounded corners*
20,1,$1+$1,$2,$3,$4,$5,0*
20,1,$1+$1,$4,$5,$6,$7,0*
20,1,$1+$1,$6,$7,$8,$9,0*
20,1,$1+$1,$8,$9,$2,$3,0*%
G04 Aperture macros list end*
%TA.AperFunction,ComponentPad*%
%ADD10C,1.500000*%
%TD*%
%TA.AperFunction,ComponentPad*%
%ADD11R,1.700000X1.700000*%
%TD*%
%TA.AperFunction,ComponentPad*%
%ADD12C,1.700000*%
%TD*%
%TA.AperFunction,HeatsinkPad*%
%ADD13O,1.000000X2.100000*%
%TD*%
%TA.AperFunction,HeatsinkPad*%
%ADD14O,1.000000X1.600000*%
%TD*%
%TA.AperFunction,ComponentPad*%
%ADD15RoundRect,0.250000X-0.550000X0.550000X-0.550000X-0.550000X0.550000X-0.550000X0.550000X0.550000X0*%
%TD*%
%TA.AperFunction,ComponentPad*%
%ADD16C,1.600000*%
%TD*%
%TA.AperFunction,ViaPad*%
%ADD17C,0.600000*%
%TD*%
%TA.AperFunction,Conductor*%
%ADD18C,0.200000*%
%TD*%
G04 APERTURE END LIST*
D10*
%TO.P,Y1,1,1*%
%TO.N,Net-(U1-XI)*%
X74640000Y-83600000D03*
%TO.P,Y1,2,2*%
%TO.N,GND*%
X69760000Y-83600000D03*
%TD*%
D11*
%TO.P,J2,1,Pin_1*%
%TO.N,GND*%
X58200000Y-118750000D03*
D12*
%TO.P,J2,2,Pin_2*%
%TO.N,Net-(J2-Pin_2)*%
X58200000Y-116210000D03*
%TO.P,J2,3,Pin_3*%
%TO.N,Net-(J2-Pin_3)*%
X58200000Y-113670000D03*
%TO.P,J2,4,Pin_4*%
%TO.N,Net-(J2-Pin_4)*%
X58200000Y-111130000D03*
%TO.P,J2,5,Pin_5*%
%TO.N,unconnected-(J2-Pin_5-Pad5)*%
X58200000Y-108590000D03*
%TO.P,J2,6,Pin_6*%
%TO.N,unconnected-(J2-Pin_6-Pad6)*%
X58200000Y-106050000D03*
%TD*%
D13*
%TO.P,J1,S1,SHIELD*%
%TO.N,GND*%
X69780000Y-129980000D03*
D14*
X69780000Y-134160000D03*
D13*
X78420000Y-129980000D03*
D14*
X78420000Y-134160000D03*
%TD*%
D15*
%TO.P,C3,1*%
%TO.N,Net-(J2-Pin_2)*%
X47600000Y-116782388D03*
D16*
%TO.P,C3,2*%
%TO.N,GND*%
X47600000Y-118782388D03*
%TD*%
D17*
%TO.N,Net-(U1-UD+)*%
X75800000Y-122600000D03*
%TO.N,Net-(J2-Pin_2)*%
X72200000Y-130400000D03*
%TO.N,Net-(U1-UD+)*%
X73600000Y-122600000D03*
%TO.N,Net-(J2-Pin_2)*%
X75800000Y-131400000D03*
%TO.N,GND*%
X70800000Y-126600000D03*
X77000000Y-134000000D03*
X67200000Y-112600000D03*
X64200000Y-99200000D03*
X77600000Y-112800000D03*
X70200000Y-113000000D03*
%TD*%
D18*
%TO.N,Net-(U1-UD+)*%
X73600000Y-122600000D02*
X75800000Y-122600000D01*
%TO.N,Net-(J2-Pin_2)*%
X72200000Y-130400000D02*
X72200000Y-131200000D01*
X72400000Y-131400000D02*
X75800000Y-131400000D01*
X72200000Y-131200000D02*
X72400000Y-131400000D01*
%TO.N,GND*%
X78000000Y-126600000D02*
X79000000Y-127600000D01*
X70800000Y-126600000D02*
X78000000Y-126600000D01*
X79000000Y-127600000D02*
X79000000Y-129400000D01*
X79000000Y-129400000D02*
X78420000Y-129980000D01*
X77000000Y-132800000D02*
X78200000Y-131600000D01*
X77000000Y-134000000D02*
X77000000Y-132800000D01*
X78200000Y-131600000D02*
X78200000Y-130200000D01*
X78200000Y-130200000D02*
X78420000Y-129980000D01*
X64200000Y-109600000D02*
X67200000Y-112600000D01*
X64200000Y-99200000D02*
X64200000Y-109600000D01*
X77400000Y-113000000D02*
X77600000Y-112800000D01*
X70200000Y-113000000D02*
X77400000Y-113000000D01*
%TD*%
M02*
