M48
; DRILL file {KiCad 9.0.7} date 2026-04-05T15:03:51+0300
; FORMAT={-:-/ absolute / metric / decimal}
; #@! TF.CreationDate,2026-04-05T15:03:51+03:00
; #@! TF.GenerationSoftware,Kicad,Pcbnew,9.0.7
; #@! TF.FileFunction,MixedPlating,1,2
FMAT,2
METRIC
; #@! TA.AperFunction,Plated,PTH,ViaDrill
T1C0.300
; #@! TA.AperFunction,Plated,PTH,ComponentDrill
T2C0.600
; #@! TA.AperFunction,Plated,PTH,ComponentDrill
T3C0.800
; #@! TA.AperFunction,Plated,PTH,ComponentDrill
T4C1.000
; #@! TA.AperFunction,NonPlated,NPTH,ComponentDrill
T5C0.650
%
G90
G05
T1
X64.2Y-99.2
X67.2Y-112.6
X70.2Y-113.0
X70.8Y-126.6
X72.2Y-130.4
X73.6Y-122.6
X75.8Y-122.6
X75.8Y-131.4
X77.0Y-134.0
X77.6Y-112.8
T3
X47.6Y-116.782
X47.6Y-118.782
X69.76Y-83.6
X74.64Y-83.6
T4
X58.2Y-106.05
X58.2Y-108.59
X58.2Y-111.13
X58.2Y-113.67
X58.2Y-116.21
X58.2Y-118.75
T5
X71.21Y-130.51
X76.99Y-130.51
T2
G00X69.78Y-129.43
M15
G01X69.78Y-130.53
M16
G05
G00X69.78Y-133.86
M15
G01X69.78Y-134.46
M16
G05
G00X78.42Y-129.43
M15
G01X78.42Y-130.53
M16
G05
G00X78.42Y-133.86
M15
G01X78.42Y-134.46
M16
G05
M30
