%TF.GenerationSoftware,KiCad,Pcbnew,9.0.7*%
%TF.CreationDate,2026-04-05T15:03:37+03:00*%
%TF.ProjectId,USB-to-TTL Serial UART Converter,5553422d-746f-42d5-9454-4c2053657269,rev?*%
%TF.SameCoordinates,Original*%
%TF.FileFunction,Legend,Top*%
%TF.FilePolarity,Positive*%
%FSLAX46Y46*%
G04 Gerber Fmt 4.6, Leading zero omitted, Abs format (unit mm)*
G04 Created by KiCad (PCBNEW 9.0.7) date 2026-04-05 15:03:37*
%MOMM*%
%LPD*%
G01*
G04 APERTURE LIST*
%ADD10C,0.150000*%
%ADD11C,0.120000*%
G04 APERTURE END LIST*
D10*
X71723809Y-87098628D02*
X71723809Y-87574819D01*
X71390476Y-86574819D02*
X71723809Y-87098628D01*
X71723809Y-87098628D02*
X72057142Y-86574819D01*
X72914285Y-87574819D02*
X72342857Y-87574819D01*
X72628571Y-87574819D02*
X72628571Y-86574819D01*
X72628571Y-86574819D02*
X72533333Y-86717676D01*
X72533333Y-86717676D02*
X72438095Y-86812914D01*
X72438095Y-86812914D02*
X72342857Y-86860533D01*
X65979819Y-97336904D02*
X66789342Y-97336904D01*
X66789342Y-97336904D02*
X66884580Y-97289285D01*
X66884580Y-97289285D02*
X66932200Y-97241666D01*
X66932200Y-97241666D02*
X66979819Y-97146428D01*
X66979819Y-97146428D02*
X66979819Y-96955952D01*
X66979819Y-96955952D02*
X66932200Y-96860714D01*
X66932200Y-96860714D02*
X66884580Y-96813095D01*
X66884580Y-96813095D02*
X66789342Y-96765476D01*
X66789342Y-96765476D02*
X65979819Y-96765476D01*
X66979819Y-95765476D02*
X66979819Y-96336904D01*
X66979819Y-96051190D02*
X65979819Y-96051190D01*
X65979819Y-96051190D02*
X66122676Y-96146428D01*
X66122676Y-96146428D02*
X66217914Y-96241666D01*
X66217914Y-96241666D02*
X66265533Y-96336904D01*
X88504819Y-137254166D02*
X88028628Y-137587499D01*
X88504819Y-137825594D02*
X87504819Y-137825594D01*
X87504819Y-137825594D02*
X87504819Y-137444642D01*
X87504819Y-137444642D02*
X87552438Y-137349404D01*
X87552438Y-137349404D02*
X87600057Y-137301785D01*
X87600057Y-137301785D02*
X87695295Y-137254166D01*
X87695295Y-137254166D02*
X87838152Y-137254166D01*
X87838152Y-137254166D02*
X87933390Y-137301785D01*
X87933390Y-137301785D02*
X87981009Y-137349404D01*
X87981009Y-137349404D02*
X88028628Y-137444642D01*
X88028628Y-137444642D02*
X88028628Y-137825594D01*
X87504819Y-136920832D02*
X87504819Y-136301785D01*
X87504819Y-136301785D02*
X87885771Y-136635118D01*
X87885771Y-136635118D02*
X87885771Y-136492261D01*
X87885771Y-136492261D02*
X87933390Y-136397023D01*
X87933390Y-136397023D02*
X87981009Y-136349404D01*
X87981009Y-136349404D02*
X88076247Y-136301785D01*
X88076247Y-136301785D02*
X88314342Y-136301785D01*
X88314342Y-136301785D02*
X88409580Y-136349404D01*
X88409580Y-136349404D02*
X88457200Y-136397023D01*
X88457200Y-136397023D02*
X88504819Y-136492261D01*
X88504819Y-136492261D02*
X88504819Y-136777975D01*
X88504819Y-136777975D02*
X88457200Y-136873213D01*
X88457200Y-136873213D02*
X88409580Y-136920832D01*
X88704819Y-127279166D02*
X88228628Y-127612499D01*
X88704819Y-127850594D02*
X87704819Y-127850594D01*
X87704819Y-127850594D02*
X87704819Y-127469642D01*
X87704819Y-127469642D02*
X87752438Y-127374404D01*
X87752438Y-127374404D02*
X87800057Y-127326785D01*
X87800057Y-127326785D02*
X87895295Y-127279166D01*
X87895295Y-127279166D02*
X88038152Y-127279166D01*
X88038152Y-127279166D02*
X88133390Y-127326785D01*
X88133390Y-127326785D02*
X88181009Y-127374404D01*
X88181009Y-127374404D02*
X88228628Y-127469642D01*
X88228628Y-127469642D02*
X88228628Y-127850594D01*
X87800057Y-126898213D02*
X87752438Y-126850594D01*
X87752438Y-126850594D02*
X87704819Y-126755356D01*
X87704819Y-126755356D02*
X87704819Y-126517261D01*
X87704819Y-126517261D02*
X87752438Y-126422023D01*
X87752438Y-126422023D02*
X87800057Y-126374404D01*
X87800057Y-126374404D02*
X87895295Y-126326785D01*
X87895295Y-126326785D02*
X87990533Y-126326785D01*
X87990533Y-126326785D02*
X88133390Y-126374404D01*
X88133390Y-126374404D02*
X88704819Y-126945832D01*
X88704819Y-126945832D02*
X88704819Y-126326785D01*
X50704819Y-126704166D02*
X50228628Y-127037499D01*
X50704819Y-127275594D02*
X49704819Y-127275594D01*
X49704819Y-127275594D02*
X49704819Y-126894642D01*
X49704819Y-126894642D02*
X49752438Y-126799404D01*
X49752438Y-126799404D02*
X49800057Y-126751785D01*
X49800057Y-126751785D02*
X49895295Y-126704166D01*
X49895295Y-126704166D02*
X50038152Y-126704166D01*
X50038152Y-126704166D02*
X50133390Y-126751785D01*
X50133390Y-126751785D02*
X50181009Y-126799404D01*
X50181009Y-126799404D02*
X50228628Y-126894642D01*
X50228628Y-126894642D02*
X50228628Y-127275594D01*
X50704819Y-125751785D02*
X50704819Y-126323213D01*
X50704819Y-126037499D02*
X49704819Y-126037499D01*
X49704819Y-126037499D02*
X49847676Y-126132737D01*
X49847676Y-126132737D02*
X49942914Y-126227975D01*
X49942914Y-126227975D02*
X49990533Y-126323213D01*
X57866666Y-120584819D02*
X57866666Y-121299104D01*
X57866666Y-121299104D02*
X57819047Y-121441961D01*
X57819047Y-121441961D02*
X57723809Y-121537200D01*
X57723809Y-121537200D02*
X57580952Y-121584819D01*
X57580952Y-121584819D02*
X57485714Y-121584819D01*
X58295238Y-120680057D02*
X58342857Y-120632438D01*
X58342857Y-120632438D02*
X58438095Y-120584819D01*
X58438095Y-120584819D02*
X58676190Y-120584819D01*
X58676190Y-120584819D02*
X58771428Y-120632438D01*
X58771428Y-120632438D02*
X58819047Y-120680057D01*
X58819047Y-120680057D02*
X58866666Y-120775295D01*
X58866666Y-120775295D02*
X58866666Y-120870533D01*
X58866666Y-120870533D02*
X58819047Y-121013390D01*
X58819047Y-121013390D02*
X58247619Y-121584819D01*
X58247619Y-121584819D02*
X58866666Y-121584819D01*
X73766666Y-126919819D02*
X73766666Y-127634104D01*
X73766666Y-127634104D02*
X73719047Y-127776961D01*
X73719047Y-127776961D02*
X73623809Y-127872200D01*
X73623809Y-127872200D02*
X73480952Y-127919819D01*
X73480952Y-127919819D02*
X73385714Y-127919819D01*
X74766666Y-127919819D02*
X74195238Y-127919819D01*
X74480952Y-127919819D02*
X74480952Y-126919819D01*
X74480952Y-126919819D02*
X74385714Y-127062676D01*
X74385714Y-127062676D02*
X74290476Y-127157914D01*
X74290476Y-127157914D02*
X74195238Y-127205533D01*
X40904819Y-119275594D02*
X39904819Y-119275594D01*
X39904819Y-119275594D02*
X39904819Y-119037499D01*
X39904819Y-119037499D02*
X39952438Y-118894642D01*
X39952438Y-118894642D02*
X40047676Y-118799404D01*
X40047676Y-118799404D02*
X40142914Y-118751785D01*
X40142914Y-118751785D02*
X40333390Y-118704166D01*
X40333390Y-118704166D02*
X40476247Y-118704166D01*
X40476247Y-118704166D02*
X40666723Y-118751785D01*
X40666723Y-118751785D02*
X40761961Y-118799404D01*
X40761961Y-118799404D02*
X40857200Y-118894642D01*
X40857200Y-118894642D02*
X40904819Y-119037499D01*
X40904819Y-119037499D02*
X40904819Y-119275594D01*
X40904819Y-117751785D02*
X40904819Y-118323213D01*
X40904819Y-118037499D02*
X39904819Y-118037499D01*
X39904819Y-118037499D02*
X40047676Y-118132737D01*
X40047676Y-118132737D02*
X40142914Y-118227975D01*
X40142914Y-118227975D02*
X40190533Y-118323213D01*
X88839580Y-109216666D02*
X88887200Y-109264285D01*
X88887200Y-109264285D02*
X88934819Y-109407142D01*
X88934819Y-109407142D02*
X88934819Y-109502380D01*
X88934819Y-109502380D02*
X88887200Y-109645237D01*
X88887200Y-109645237D02*
X88791961Y-109740475D01*
X88791961Y-109740475D02*
X88696723Y-109788094D01*
X88696723Y-109788094D02*
X88506247Y-109835713D01*
X88506247Y-109835713D02*
X88363390Y-109835713D01*
X88363390Y-109835713D02*
X88172914Y-109788094D01*
X88172914Y-109788094D02*
X88077676Y-109740475D01*
X88077676Y-109740475D02*
X87982438Y-109645237D01*
X87982438Y-109645237D02*
X87934819Y-109502380D01*
X87934819Y-109502380D02*
X87934819Y-109407142D01*
X87934819Y-109407142D02*
X87982438Y-109264285D01*
X87982438Y-109264285D02*
X88030057Y-109216666D01*
X88268152Y-108359523D02*
X88934819Y-108359523D01*
X87887200Y-108597618D02*
X88601485Y-108835713D01*
X88601485Y-108835713D02*
X88601485Y-108216666D01*
X51709580Y-117949054D02*
X51757200Y-117996673D01*
X51757200Y-117996673D02*
X51804819Y-118139530D01*
X51804819Y-118139530D02*
X51804819Y-118234768D01*
X51804819Y-118234768D02*
X51757200Y-118377625D01*
X51757200Y-118377625D02*
X51661961Y-118472863D01*
X51661961Y-118472863D02*
X51566723Y-118520482D01*
X51566723Y-118520482D02*
X51376247Y-118568101D01*
X51376247Y-118568101D02*
X51233390Y-118568101D01*
X51233390Y-118568101D02*
X51042914Y-118520482D01*
X51042914Y-118520482D02*
X50947676Y-118472863D01*
X50947676Y-118472863D02*
X50852438Y-118377625D01*
X50852438Y-118377625D02*
X50804819Y-118234768D01*
X50804819Y-118234768D02*
X50804819Y-118139530D01*
X50804819Y-118139530D02*
X50852438Y-117996673D01*
X50852438Y-117996673D02*
X50900057Y-117949054D01*
X50804819Y-117615720D02*
X50804819Y-116996673D01*
X50804819Y-116996673D02*
X51185771Y-117330006D01*
X51185771Y-117330006D02*
X51185771Y-117187149D01*
X51185771Y-117187149D02*
X51233390Y-117091911D01*
X51233390Y-117091911D02*
X51281009Y-117044292D01*
X51281009Y-117044292D02*
X51376247Y-116996673D01*
X51376247Y-116996673D02*
X51614342Y-116996673D01*
X51614342Y-116996673D02*
X51709580Y-117044292D01*
X51709580Y-117044292D02*
X51757200Y-117091911D01*
X51757200Y-117091911D02*
X51804819Y-117187149D01*
X51804819Y-117187149D02*
X51804819Y-117472863D01*
X51804819Y-117472863D02*
X51757200Y-117568101D01*
X51757200Y-117568101D02*
X51709580Y-117615720D01*
X80839580Y-109316666D02*
X80887200Y-109364285D01*
X80887200Y-109364285D02*
X80934819Y-109507142D01*
X80934819Y-109507142D02*
X80934819Y-109602380D01*
X80934819Y-109602380D02*
X80887200Y-109745237D01*
X80887200Y-109745237D02*
X80791961Y-109840475D01*
X80791961Y-109840475D02*
X80696723Y-109888094D01*
X80696723Y-109888094D02*
X80506247Y-109935713D01*
X80506247Y-109935713D02*
X80363390Y-109935713D01*
X80363390Y-109935713D02*
X80172914Y-109888094D01*
X80172914Y-109888094D02*
X80077676Y-109840475D01*
X80077676Y-109840475D02*
X79982438Y-109745237D01*
X79982438Y-109745237D02*
X79934819Y-109602380D01*
X79934819Y-109602380D02*
X79934819Y-109507142D01*
X79934819Y-109507142D02*
X79982438Y-109364285D01*
X79982438Y-109364285D02*
X80030057Y-109316666D01*
X80030057Y-108935713D02*
X79982438Y-108888094D01*
X79982438Y-108888094D02*
X79934819Y-108792856D01*
X79934819Y-108792856D02*
X79934819Y-108554761D01*
X79934819Y-108554761D02*
X79982438Y-108459523D01*
X79982438Y-108459523D02*
X80030057Y-108411904D01*
X80030057Y-108411904D02*
X80125295Y-108364285D01*
X80125295Y-108364285D02*
X80220533Y-108364285D01*
X80220533Y-108364285D02*
X80363390Y-108411904D01*
X80363390Y-108411904D02*
X80934819Y-108983332D01*
X80934819Y-108983332D02*
X80934819Y-108364285D01*
X72039580Y-109166666D02*
X72087200Y-109214285D01*
X72087200Y-109214285D02*
X72134819Y-109357142D01*
X72134819Y-109357142D02*
X72134819Y-109452380D01*
X72134819Y-109452380D02*
X72087200Y-109595237D01*
X72087200Y-109595237D02*
X71991961Y-109690475D01*
X71991961Y-109690475D02*
X71896723Y-109738094D01*
X71896723Y-109738094D02*
X71706247Y-109785713D01*
X71706247Y-109785713D02*
X71563390Y-109785713D01*
X71563390Y-109785713D02*
X71372914Y-109738094D01*
X71372914Y-109738094D02*
X71277676Y-109690475D01*
X71277676Y-109690475D02*
X71182438Y-109595237D01*
X71182438Y-109595237D02*
X71134819Y-109452380D01*
X71134819Y-109452380D02*
X71134819Y-109357142D01*
X71134819Y-109357142D02*
X71182438Y-109214285D01*
X71182438Y-109214285D02*
X71230057Y-109166666D01*
X72134819Y-108214285D02*
X72134819Y-108785713D01*
X72134819Y-108499999D02*
X71134819Y-108499999D01*
X71134819Y-108499999D02*
X71277676Y-108595237D01*
X71277676Y-108595237D02*
X71372914Y-108690475D01*
X71372914Y-108690475D02*
X71420533Y-108785713D01*
D11*
%TO.C,Y1*%
X75325000Y-86035000D02*
X69075000Y-86035000D01*
X69075000Y-81165000D02*
X75325000Y-81165000D01*
X75325000Y-81165000D02*
G75*
G02*
X75325000Y-86035000I0J-2435000D01*
G01*
X69075000Y-86035000D02*
G75*
G02*
X69075000Y-81165000I0J2435000D01*
G01*
%TO.C,U1*%
X67365000Y-98635000D02*
X67365000Y-94515000D01*
X67420000Y-98635000D02*
X67365000Y-98635000D01*
X77485000Y-98635000D02*
X77430000Y-98635000D01*
X67365000Y-94515000D02*
X67420000Y-94515000D01*
X77430000Y-94515000D02*
X77485000Y-94515000D01*
X77485000Y-94515000D02*
X77485000Y-98635000D01*
X67415000Y-99175000D02*
X67085000Y-99415000D01*
X67085000Y-98935000D01*
X67415000Y-99175000D01*
G36*
X67415000Y-99175000D02*
G01*
X67085000Y-99415000D01*
X67085000Y-98935000D01*
X67415000Y-99175000D01*
G37*
%TO.C,R3*%
X87135000Y-136860436D02*
X87135000Y-137314564D01*
X85665000Y-136860436D02*
X85665000Y-137314564D01*
%TO.C,R2*%
X87335000Y-126885436D02*
X87335000Y-127339564D01*
X85865000Y-126885436D02*
X85865000Y-127339564D01*
%TO.C,R1*%
X49335000Y-126310436D02*
X49335000Y-126764564D01*
X47865000Y-126310436D02*
X47865000Y-126764564D01*
%TO.C,J2*%
X59580000Y-120130000D02*
X58200000Y-120130000D01*
X59580000Y-118750000D02*
X59580000Y-120130000D01*
X59580000Y-117480000D02*
X59580000Y-104670000D01*
X59580000Y-117480000D02*
X56820000Y-117480000D01*
X59580000Y-104670000D02*
X56820000Y-104670000D01*
X56820000Y-117480000D02*
X56820000Y-104670000D01*
%TO.C,J1*%
X69400000Y-131210000D02*
X69400000Y-133210000D01*
X69400000Y-135110000D02*
X69400000Y-137010000D01*
X69400000Y-137010000D02*
X78800000Y-137010000D01*
X78800000Y-131210000D02*
X78800000Y-133210000D01*
X78800000Y-135110000D02*
X78800000Y-137010000D01*
%TO.C,D1*%
X39760000Y-116852500D02*
X37840000Y-116852500D01*
X37840000Y-116852500D02*
X37840000Y-119537500D01*
X39760000Y-119537500D02*
X39760000Y-116852500D01*
%TO.C,C4*%
X87535000Y-108788748D02*
X87535000Y-109311252D01*
X86065000Y-108788748D02*
X86065000Y-109311252D01*
%TO.C,C3*%
X49075000Y-114977613D02*
X49075000Y-115477613D01*
X49325000Y-115227613D02*
X48825000Y-115227613D01*
X50180000Y-117782388D02*
X48640000Y-117782388D01*
X46560000Y-117782388D02*
X45020000Y-117782388D01*
X50180000Y-117822388D02*
X48640000Y-117822388D01*
X46560000Y-117822388D02*
X45020000Y-117822388D01*
X50179000Y-117862388D02*
X48640000Y-117862388D01*
X46560000Y-117862388D02*
X45021000Y-117862388D01*
X50177000Y-117902388D02*
X48640000Y-117902388D01*
X46560000Y-117902388D02*
X45023000Y-117902388D01*
X50175000Y-117942388D02*
X48640000Y-117942388D01*
X46560000Y-117942388D02*
X45025000Y-117942388D01*
X50172000Y-117982388D02*
X48640000Y-117982388D01*
X46560000Y-117982388D02*
X45028000Y-117982388D01*
X50169000Y-118022388D02*
X48640000Y-118022388D01*
X46560000Y-118022388D02*
X45031000Y-118022388D01*
X50165000Y-118062388D02*
X48640000Y-118062388D01*
X46560000Y-118062388D02*
X45035000Y-118062388D01*
X50160000Y-118102388D02*
X48640000Y-118102388D01*
X46560000Y-118102388D02*
X45040000Y-118102388D01*
X50155000Y-118142388D02*
X48640000Y-118142388D01*
X46560000Y-118142388D02*
X45045000Y-118142388D01*
X50149000Y-118182388D02*
X48640000Y-118182388D01*
X46560000Y-118182388D02*
X45051000Y-118182388D01*
X50143000Y-118222388D02*
X48640000Y-118222388D01*
X46560000Y-118222388D02*
X45057000Y-118222388D01*
X50136000Y-118262388D02*
X48640000Y-118262388D01*
X46560000Y-118262388D02*
X45064000Y-118262388D01*
X50128000Y-118302388D02*
X48640000Y-118302388D01*
X46560000Y-118302388D02*
X45072000Y-118302388D01*
X50119000Y-118342388D02*
X48640000Y-118342388D01*
X46560000Y-118342388D02*
X45081000Y-118342388D01*
X50110000Y-118382388D02*
X48640000Y-118382388D01*
X46560000Y-118382388D02*
X45090000Y-118382388D01*
X50101000Y-118422388D02*
X48640000Y-118422388D01*
X46560000Y-118422388D02*
X45099000Y-118422388D01*
X50090000Y-118462388D02*
X48640000Y-118462388D01*
X46560000Y-118462388D02*
X45110000Y-118462388D01*
X50079000Y-118502388D02*
X48640000Y-118502388D01*
X46560000Y-118502388D02*
X45121000Y-118502388D01*
X50067000Y-118542388D02*
X48640000Y-118542388D01*
X46560000Y-118542388D02*
X45133000Y-118542388D01*
X50055000Y-118582388D02*
X48640000Y-118582388D01*
X46560000Y-118582388D02*
X45145000Y-118582388D01*
X50042000Y-118622388D02*
X48640000Y-118622388D01*
X46560000Y-118622388D02*
X45158000Y-118622388D01*
X50028000Y-118662388D02*
X48640000Y-118662388D01*
X46560000Y-118662388D02*
X45172000Y-118662388D01*
X50013000Y-118702388D02*
X48640000Y-118702388D01*
X46560000Y-118702388D02*
X45187000Y-118702388D01*
X49998000Y-118742388D02*
X48640000Y-118742388D01*
X46560000Y-118742388D02*
X45202000Y-118742388D01*
X49982000Y-118782388D02*
X48640000Y-118782388D01*
X46560000Y-118782388D02*
X45218000Y-118782388D01*
X49965000Y-118822388D02*
X48640000Y-118822388D01*
X46560000Y-118822388D02*
X45235000Y-118822388D01*
X49947000Y-118862388D02*
X48640000Y-118862388D01*
X46560000Y-118862388D02*
X45253000Y-118862388D01*
X49929000Y-118902388D02*
X48640000Y-118902388D01*
X46560000Y-118902388D02*
X45271000Y-118902388D01*
X49909000Y-118942388D02*
X48640000Y-118942388D01*
X46560000Y-118942388D02*
X45291000Y-118942388D01*
X49889000Y-118982388D02*
X48640000Y-118982388D01*
X46560000Y-118982388D02*
X45311000Y-118982388D01*
X49868000Y-119022388D02*
X48640000Y-119022388D01*
X46560000Y-119022388D02*
X45332000Y-119022388D01*
X49846000Y-119062388D02*
X48640000Y-119062388D01*
X46560000Y-119062388D02*
X45354000Y-119062388D01*
X49823000Y-119102388D02*
X48640000Y-119102388D01*
X46560000Y-119102388D02*
X45377000Y-119102388D01*
X49799000Y-119142388D02*
X48640000Y-119142388D01*
X46560000Y-119142388D02*
X45401000Y-119142388D01*
X49775000Y-119182388D02*
X48640000Y-119182388D01*
X46560000Y-119182388D02*
X45425000Y-119182388D01*
X49749000Y-119222388D02*
X48640000Y-119222388D01*
X46560000Y-119222388D02*
X45451000Y-119222388D01*
X49722000Y-119262388D02*
X48640000Y-119262388D01*
X46560000Y-119262388D02*
X45478000Y-119262388D01*
X49694000Y-119302388D02*
X48640000Y-119302388D01*
X46560000Y-119302388D02*
X45506000Y-119302388D01*
X49665000Y-119342388D02*
X48640000Y-119342388D01*
X46560000Y-119342388D02*
X45535000Y-119342388D01*
X49635000Y-119382388D02*
X48640000Y-119382388D01*
X46560000Y-119382388D02*
X45565000Y-119382388D01*
X49603000Y-119422388D02*
X48640000Y-119422388D01*
X46560000Y-119422388D02*
X45597000Y-119422388D01*
X49570000Y-119462388D02*
X48640000Y-119462388D01*
X46560000Y-119462388D02*
X45630000Y-119462388D01*
X49536000Y-119502388D02*
X48640000Y-119502388D01*
X46560000Y-119502388D02*
X45664000Y-119502388D01*
X49501000Y-119542388D02*
X48640000Y-119542388D01*
X46560000Y-119542388D02*
X45699000Y-119542388D01*
X49464000Y-119582388D02*
X48640000Y-119582388D01*
X46560000Y-119582388D02*
X45736000Y-119582388D01*
X49425000Y-119622388D02*
X48640000Y-119622388D01*
X46560000Y-119622388D02*
X45775000Y-119622388D01*
X49385000Y-119662388D02*
X48640000Y-119662388D01*
X46560000Y-119662388D02*
X45815000Y-119662388D01*
X49343000Y-119702388D02*
X48640000Y-119702388D01*
X46560000Y-119702388D02*
X45857000Y-119702388D01*
X49299000Y-119742388D02*
X48640000Y-119742388D01*
X46560000Y-119742388D02*
X45901000Y-119742388D01*
X49252000Y-119782388D02*
X48640000Y-119782388D01*
X46560000Y-119782388D02*
X45948000Y-119782388D01*
X49204000Y-119822388D02*
X45996000Y-119822388D01*
X49153000Y-119862388D02*
X46047000Y-119862388D01*
X49099000Y-119902388D02*
X46101000Y-119902388D01*
X49043000Y-119942388D02*
X46157000Y-119942388D01*
X48983000Y-119982388D02*
X46217000Y-119982388D01*
X48919000Y-120022388D02*
X46281000Y-120022388D01*
X48851000Y-120062388D02*
X46349000Y-120062388D01*
X48777000Y-120102388D02*
X46423000Y-120102388D01*
X48698000Y-120142388D02*
X46502000Y-120142388D01*
X48611000Y-120182388D02*
X46589000Y-120182388D01*
X48514000Y-120222388D02*
X46686000Y-120222388D01*
X48405000Y-120262388D02*
X46795000Y-120262388D01*
X48277000Y-120302388D02*
X46923000Y-120302388D01*
X48117000Y-120342388D02*
X47083000Y-120342388D01*
X47883000Y-120382388D02*
X47317000Y-120382388D01*
X50220000Y-117782388D02*
G75*
G02*
X44980000Y-117782388I-2620000J0D01*
G01*
X44980000Y-117782388D02*
G75*
G02*
X50220000Y-117782388I2620000J0D01*
G01*
%TO.C,C2*%
X79535000Y-108888748D02*
X79535000Y-109411252D01*
X78065000Y-108888748D02*
X78065000Y-109411252D01*
%TO.C,C1*%
X70735000Y-108738748D02*
X70735000Y-109261252D01*
X69265000Y-108738748D02*
X69265000Y-109261252D01*
%TD*%
M02*
