%TF.GenerationSoftware,KiCad,Pcbnew,9.0.7*%
%TF.CreationDate,2026-04-05T15:03:37+03:00*%
%TF.ProjectId,USB-to-TTL Serial UART Converter,5553422d-746f-42d5-9454-4c2053657269,rev?*%
%TF.SameCoordinates,Original*%
%TF.FileFunction,Copper,L1,Top*%
%TF.FilePolarity,Positive*%
%FSLAX46Y46*%
G04 Gerber Fmt 4.6, Leading zero omitted, Abs format (unit mm)*
G04 Created by KiCad (PCBNEW 9.0.7) date 2026-04-05 15:03:37*
%MOMM*%
%LPD*%
G01*
G04 APERTURE LIST*
G04 Aperture macros list*
%AMRoundRect*
0 Rectangle with rounded corners*
0 $1 Rounding radius*
0 $2 $3 $4 $5 $6 $7 $8 $9 X,Y pos of 4 corners*
0 Add a 4 corners polygon primitive as box body*
4,1,4,$2,$3,$4,$5,$6,$7,$8,$9,$2,$3,0*
0 Add four circle primitives for the rounded corners*
1,1,$1+$1,$2,$3*
1,1,$1+$1,$4,$5*
1,1,$1+$1,$6,$7*
1,1,$1+$1,$8,$9*
0 Add four rect primitives between the rounded corners*
20,1,$1+$1,$2,$3,$4,$5,0*
20,1,$1+$1,$4,$5,$6,$7,0*
20,1,$1+$1,$6,$7,$8,$9,0*
20,1,$1+$1,$8,$9,$2,$3,0*%
G04 Aperture macros list end*
%TA.AperFunction,ComponentPad*%
%ADD10C,1.500000*%
%TD*%
%TA.AperFunction,SMDPad,CuDef*%
%ADD11RoundRect,0.150000X0.150000X-0.825000X0.150000X0.825000X-0.150000X0.825000X-0.150000X-0.825000X0*%
%TD*%
%TA.AperFunction,SMDPad,CuDef*%
%ADD12RoundRect,0.250000X-0.450000X0.262500X-0.450000X-0.262500X0.450000X-0.262500X0.450000X0.262500X0*%
%TD*%
%TA.AperFunction,ComponentPad*%
%ADD13R,1.700000X1.700000*%
%TD*%
%TA.AperFunction,ComponentPad*%
%ADD14C,1.700000*%
%TD*%
%TA.AperFunction,SMDPad,CuDef*%
%ADD15R,0.600000X1.450000*%
%TD*%
%TA.AperFunction,SMDPad,CuDef*%
%ADD16R,0.300000X1.450000*%
%TD*%
%TA.AperFunction,HeatsinkPad*%
%ADD17O,1.000000X2.100000*%
%TD*%
%TA.AperFunction,HeatsinkPad*%
%ADD18O,1.000000X1.600000*%
%TD*%
%TA.AperFunction,SMDPad,CuDef*%
%ADD19RoundRect,0.243750X-0.456250X0.243750X-0.456250X-0.243750X0.456250X-0.243750X0.456250X0.243750X0*%
%TD*%
%TA.AperFunction,SMDPad,CuDef*%
%ADD20RoundRect,0.250000X-0.475000X0.250000X-0.475000X-0.250000X0.475000X-0.250000X0.475000X0.250000X0*%
%TD*%
%TA.AperFunction,ComponentPad*%
%ADD21RoundRect,0.250000X-0.550000X0.550000X-0.550000X-0.550000X0.550000X-0.550000X0.550000X0.550000X0*%
%TD*%
%TA.AperFunction,ComponentPad*%
%ADD22C,1.600000*%
%TD*%
%TA.AperFunction,ViaPad*%
%ADD23C,0.600000*%
%TD*%
%TA.AperFunction,Conductor*%
%ADD24C,0.200000*%
%TD*%
G04 APERTURE END LIST*
D10*
%TO.P,Y1,1,1*%
%TO.N,Net-(U1-XI)*%
X74640000Y-83600000D03*
%TO.P,Y1,2,2*%
%TO.N,GND*%
X69760000Y-83600000D03*
%TD*%
D11*
%TO.P,U1,1,GND*%
%TO.N,GND*%
X67980000Y-99050000D03*
%TO.P,U1,2,TXD*%
%TO.N,Net-(J2-Pin_4)*%
X69250000Y-99050000D03*
%TO.P,U1,3,RXD*%
%TO.N,Net-(J2-Pin_3)*%
X70520000Y-99050000D03*
%TO.P,U1,4,V3*%
%TO.N,Net-(U1-V3)*%
X71790000Y-99050000D03*
%TO.P,U1,5,UD+*%
%TO.N,Net-(U1-UD+)*%
X73060000Y-99050000D03*
%TO.P,U1,6,UD-*%
%TO.N,Net-(U1-UD-)*%
X74330000Y-99050000D03*
%TO.P,U1,7,XI*%
%TO.N,Net-(U1-XI)*%
X75600000Y-99050000D03*
%TO.P,U1,8,XO*%
X76870000Y-99050000D03*
%TO.P,U1,9,~{CTS}*%
%TO.N,unconnected-(U1-~{CTS}-Pad9)*%
X76870000Y-94100000D03*
%TO.P,U1,10,~{DSR}*%
%TO.N,unconnected-(U1-~{DSR}-Pad10)*%
X75600000Y-94100000D03*
%TO.P,U1,11,~{RI}*%
%TO.N,unconnected-(U1-~{RI}-Pad11)*%
X74330000Y-94100000D03*
%TO.P,U1,12,~{DCD}*%
%TO.N,unconnected-(U1-~{DCD}-Pad12)*%
X73060000Y-94100000D03*
%TO.P,U1,13,~{DTR}*%
%TO.N,unconnected-(U1-~{DTR}-Pad13)*%
X71790000Y-94100000D03*
%TO.P,U1,14,~{RTS}*%
%TO.N,unconnected-(U1-~{RTS}-Pad14)*%
X70520000Y-94100000D03*
%TO.P,U1,15,R232*%
%TO.N,unconnected-(U1-R232-Pad15)*%
X69250000Y-94100000D03*
%TO.P,U1,16,VCC*%
%TO.N,Net-(J2-Pin_2)*%
X67980000Y-94100000D03*
%TD*%
D12*
%TO.P,R3,1*%
%TO.N,Net-(J1-CC1)*%
X86400000Y-136175000D03*
%TO.P,R3,2*%
%TO.N,GND*%
X86400000Y-138000000D03*
%TD*%
%TO.P,R2,1*%
%TO.N,Net-(J1-CC2)*%
X86600000Y-126200000D03*
%TO.P,R2,2*%
%TO.N,GND*%
X86600000Y-128025000D03*
%TD*%
%TO.P,R1,1*%
%TO.N,Net-(J2-Pin_2)*%
X48600000Y-125625000D03*
%TO.P,R1,2*%
%TO.N,Net-(D1-K)*%
X48600000Y-127450000D03*
%TD*%
D13*
%TO.P,J2,1,Pin_1*%
%TO.N,GND*%
X58200000Y-118750000D03*
D14*
%TO.P,J2,2,Pin_2*%
%TO.N,Net-(J2-Pin_2)*%
X58200000Y-116210000D03*
%TO.P,J2,3,Pin_3*%
%TO.N,Net-(J2-Pin_3)*%
X58200000Y-113670000D03*
%TO.P,J2,4,Pin_4*%
%TO.N,Net-(J2-Pin_4)*%
X58200000Y-111130000D03*
%TO.P,J2,5,Pin_5*%
%TO.N,unconnected-(J2-Pin_5-Pad5)*%
X58200000Y-108590000D03*
%TO.P,J2,6,Pin_6*%
%TO.N,unconnected-(J2-Pin_6-Pad6)*%
X58200000Y-106050000D03*
%TD*%
D15*
%TO.P,J1,A1,GND*%
%TO.N,GND*%
X70850000Y-129065000D03*
%TO.P,J1,A4,VBUS*%
%TO.N,Net-(J2-Pin_2)*%
X71650000Y-129065000D03*
D16*
%TO.P,J1,A5,CC1*%
%TO.N,Net-(J1-CC1)*%
X72850000Y-129065000D03*
%TO.P,J1,A6,D+*%
%TO.N,Net-(U1-UD+)*%
X73850000Y-129065000D03*
%TO.P,J1,A7,D-*%
%TO.N,Net-(U1-UD-)*%
X74350000Y-129065000D03*
%TO.P,J1,A8,SBU1*%
%TO.N,unconnected-(J1-SBU1-PadA8)*%
X75350000Y-129065000D03*
D15*
%TO.P,J1,A9,VBUS*%
%TO.N,Net-(J2-Pin_2)*%
X76550000Y-129065000D03*
%TO.P,J1,A12,GND*%
%TO.N,GND*%
X77350000Y-129065000D03*
%TO.P,J1,B1,GND*%
X77350000Y-129065000D03*
%TO.P,J1,B4,VBUS*%
%TO.N,Net-(J2-Pin_2)*%
X76550000Y-129065000D03*
D16*
%TO.P,J1,B5,CC2*%
%TO.N,Net-(J1-CC2)*%
X75850000Y-129065000D03*
%TO.P,J1,B6,D+*%
%TO.N,Net-(U1-UD+)*%
X74850000Y-129065000D03*
%TO.P,J1,B7,D-*%
%TO.N,Net-(U1-UD-)*%
X73350000Y-129065000D03*
%TO.P,J1,B8,SBU2*%
%TO.N,unconnected-(J1-SBU2-PadB8)*%
X72350000Y-129065000D03*
D15*
%TO.P,J1,B9,VBUS*%
%TO.N,Net-(J2-Pin_2)*%
X71650000Y-129065000D03*
%TO.P,J1,B12,GND*%
%TO.N,GND*%
X70850000Y-129065000D03*
D17*
%TO.P,J1,S1,SHIELD*%
X69780000Y-129980000D03*
D18*
X69780000Y-134160000D03*
D17*
X78420000Y-129980000D03*
D18*
X78420000Y-134160000D03*
%TD*%
D19*
%TO.P,D1,1,K*%
%TO.N,Net-(D1-K)*%
X38800000Y-117600000D03*
%TO.P,D1,2,A*%
%TO.N,GND*%
X38800000Y-119475000D03*
%TD*%
D20*
%TO.P,C4,1*%
%TO.N,Net-(U1-XI)*%
X86800000Y-108100000D03*
%TO.P,C4,2*%
%TO.N,GND*%
X86800000Y-110000000D03*
%TD*%
D21*
%TO.P,C3,1*%
%TO.N,Net-(J2-Pin_2)*%
X47600000Y-116782388D03*
D22*
%TO.P,C3,2*%
%TO.N,GND*%
X47600000Y-118782388D03*
%TD*%
D20*
%TO.P,C2,1*%
%TO.N,Net-(U1-XI)*%
X78800000Y-108200000D03*
%TO.P,C2,2*%
%TO.N,GND*%
X78800000Y-110100000D03*
%TD*%
%TO.P,C1,1*%
%TO.N,Net-(U1-V3)*%
X70000000Y-108050000D03*
%TO.P,C1,2*%
%TO.N,GND*%
X70000000Y-109950000D03*
%TD*%
D23*
%TO.N,Net-(U1-UD+)*%
X75800000Y-122600000D03*
%TO.N,Net-(J2-Pin_2)*%
X72200000Y-130400000D03*
%TO.N,Net-(U1-UD+)*%
X73600000Y-122600000D03*
%TO.N,Net-(J2-Pin_2)*%
X75800000Y-131400000D03*
%TO.N,GND*%
X70800000Y-126600000D03*
X77000000Y-134000000D03*
X67200000Y-112600000D03*
X64200000Y-99200000D03*
X77600000Y-112800000D03*
X70200000Y-113000000D03*
%TD*%
D24*
%TO.N,Net-(U1-XI)*%
X75600000Y-99050000D02*
X76870000Y-99050000D01*
%TO.N,GND*%
X77350000Y-129065000D02*
X77505000Y-129065000D01*
X77505000Y-129065000D02*
X78420000Y-129980000D01*
%TO.N,Net-(U1-UD+)*%
X75800000Y-122600000D02*
X75800000Y-126800000D01*
X74800000Y-129015000D02*
X74850000Y-129065000D01*
X75800000Y-126800000D02*
X74800000Y-127800000D01*
X74800000Y-127800000D02*
X74800000Y-129015000D01*
X73060000Y-122600000D02*
X73600000Y-122600000D01*
X73060000Y-99050000D02*
X73060000Y-122600000D01*
X73060000Y-122600000D02*
X73060000Y-123400000D01*
%TO.N,Net-(U1-UD-)*%
X73350000Y-129065000D02*
X73350000Y-130350000D01*
X73350000Y-130350000D02*
X73400000Y-130400000D01*
X73400000Y-130400000D02*
X74200000Y-130400000D01*
X74400000Y-129115000D02*
X74350000Y-129065000D01*
X74200000Y-130400000D02*
X74400000Y-130200000D01*
X74400000Y-130200000D02*
X74400000Y-129115000D01*
%TO.N,Net-(J2-Pin_2)*%
X75800000Y-131400000D02*
X75800000Y-130800000D01*
X75800000Y-130800000D02*
X76200000Y-130400000D01*
X76200000Y-130400000D02*
X76200000Y-130200000D01*
X76550000Y-129850000D02*
X76550000Y-129065000D01*
X76200000Y-130200000D02*
X76550000Y-129850000D01*
X71650000Y-129850000D02*
X72200000Y-130400000D01*
X71650000Y-129065000D02*
X71650000Y-129850000D01*
%TO.N,GND*%
X70850000Y-126650000D02*
X70800000Y-126600000D01*
X70850000Y-129065000D02*
X70850000Y-126650000D01*
X69780000Y-129980000D02*
X69935000Y-129980000D01*
X69935000Y-129980000D02*
X70850000Y-129065000D01*
X77160000Y-134160000D02*
X77000000Y-134000000D01*
X78420000Y-134160000D02*
X77160000Y-134160000D01*
X69780000Y-129980000D02*
X69780000Y-134160000D01*
X70000000Y-109950000D02*
X70000000Y-111600000D01*
X67200000Y-112600000D02*
X69000000Y-112600000D01*
X69000000Y-112600000D02*
X70000000Y-111600000D01*
X64350000Y-99050000D02*
X64200000Y-99200000D01*
X67980000Y-99050000D02*
X64350000Y-99050000D01*
X77600000Y-112800000D02*
X78800000Y-111600000D01*
X78800000Y-111600000D02*
X78800000Y-110100000D01*
X70000000Y-112800000D02*
X70200000Y-113000000D01*
X70000000Y-111600000D02*
X70000000Y-112800000D01*
X86600000Y-128025000D02*
X84645000Y-129980000D01*
X84645000Y-129980000D02*
X78420000Y-129980000D01*
X94200000Y-138000000D02*
X94400000Y-138200000D01*
X94400000Y-138200000D02*
X86600000Y-138200000D01*
X94200000Y-127200000D02*
X94200000Y-138000000D01*
X86600000Y-138200000D02*
X86400000Y-138000000D01*
X86800000Y-110000000D02*
X93600000Y-110000000D01*
X93600000Y-110000000D02*
X94200000Y-110600000D01*
X94200000Y-110600000D02*
X94200000Y-127200000D01*
X94200000Y-127200000D02*
X93375000Y-128025000D01*
X93375000Y-128025000D02*
X86600000Y-128025000D01*
X86800000Y-110000000D02*
X86700000Y-110100000D01*
X86700000Y-110100000D02*
X78800000Y-110100000D01*
X47600000Y-118782388D02*
X42217612Y-118782388D01*
X42217612Y-118782388D02*
X42200000Y-118800000D01*
X41525000Y-119475000D02*
X42200000Y-118800000D01*
X42200000Y-118800000D02*
X42200000Y-115400000D01*
X34600000Y-114400000D02*
X31000000Y-118000000D01*
X38800000Y-119475000D02*
X41525000Y-119475000D01*
X41200000Y-114400000D02*
X34600000Y-114400000D01*
X33000000Y-130000000D02*
X33000000Y-132800000D01*
X33000000Y-132800000D02*
X35600000Y-135400000D01*
X35600000Y-135400000D02*
X57600000Y-135400000D01*
X42200000Y-115400000D02*
X41200000Y-114400000D01*
X31000000Y-128000000D02*
X33000000Y-130000000D01*
X31000000Y-118000000D02*
X31000000Y-128000000D01*
X57600000Y-135400000D02*
X58200000Y-134800000D01*
X58200000Y-118750000D02*
X58200000Y-134800000D01*
X58200000Y-134800000D02*
X69140000Y-134800000D01*
X69140000Y-134800000D02*
X69780000Y-134160000D01*
%TO.N,Net-(J2-Pin_2)*%
X58200000Y-116210000D02*
X68810000Y-116210000D01*
X68810000Y-116210000D02*
X71650000Y-119050000D01*
X71650000Y-119050000D02*
X71650000Y-129065000D01*
%TO.N,Net-(J1-CC1)*%
X86400000Y-136175000D02*
X82625000Y-132400000D01*
X82625000Y-132400000D02*
X74200000Y-132400000D01*
X74200000Y-132400000D02*
X72850000Y-131050000D01*
X72850000Y-131050000D02*
X72850000Y-129065000D01*
%TO.N,Net-(U1-UD+)*%
X73060000Y-126260000D02*
X73800000Y-127000000D01*
X73800000Y-127000000D02*
X73800000Y-129015000D01*
X73800000Y-129015000D02*
X73850000Y-129065000D01*
X73060000Y-123400000D02*
X73060000Y-126260000D01*
%TO.N,Net-(U1-UD-)*%
X74330000Y-99050000D02*
X74330000Y-129045000D01*
X74330000Y-129045000D02*
X74350000Y-129065000D01*
%TO.N,Net-(J1-CC2)*%
X86600000Y-126200000D02*
X77200000Y-126200000D01*
X77200000Y-126200000D02*
X75800000Y-127600000D01*
X75800000Y-127600000D02*
X75800000Y-129015000D01*
X75800000Y-129015000D02*
X75850000Y-129065000D01*
%TO.N,Net-(U1-XI)*%
X78800000Y-108200000D02*
X86700000Y-108200000D01*
X86700000Y-108200000D02*
X86800000Y-108100000D01*
%TO.N,Net-(J2-Pin_2)*%
X47600000Y-117000000D02*
X51600000Y-121000000D01*
X47600000Y-116782388D02*
X47600000Y-117000000D01*
X51600000Y-121000000D02*
X51600000Y-122625000D01*
X51600000Y-122625000D02*
X48600000Y-125625000D01*
%TO.N,Net-(D1-K)*%
X38800000Y-117600000D02*
X36200000Y-117600000D01*
X38850000Y-127450000D02*
X48600000Y-127450000D01*
X36200000Y-117600000D02*
X35600000Y-118200000D01*
X35600000Y-118200000D02*
X35600000Y-124200000D01*
X35600000Y-124200000D02*
X38850000Y-127450000D01*
%TO.N,Net-(J2-Pin_2)*%
X47600000Y-116782388D02*
X51617612Y-116782388D01*
X51617612Y-116782388D02*
X54000000Y-114400000D01*
X67980000Y-94100000D02*
X58900000Y-94100000D01*
X58900000Y-94100000D02*
X54000000Y-99000000D01*
X54000000Y-99000000D02*
X54000000Y-114400000D01*
X54000000Y-114400000D02*
X55810000Y-116210000D01*
X55810000Y-116210000D02*
X58200000Y-116210000D01*
%TO.N,Net-(J2-Pin_4)*%
X69250000Y-99050000D02*
X69250000Y-100550000D01*
X69250000Y-100550000D02*
X64000000Y-105800000D01*
X63800000Y-105800000D02*
X61800000Y-107800000D01*
X61800000Y-107800000D02*
X61800000Y-111000000D01*
X64000000Y-105800000D02*
X63800000Y-105800000D01*
X61800000Y-111000000D02*
X58330000Y-111000000D01*
X58330000Y-111000000D02*
X58200000Y-111130000D01*
%TO.N,Net-(J2-Pin_3)*%
X70520000Y-99050000D02*
X70520000Y-102480000D01*
X70520000Y-102480000D02*
X66400000Y-106600000D01*
X66400000Y-106600000D02*
X66400000Y-109800000D01*
X62530000Y-113670000D02*
X58200000Y-113670000D01*
X66400000Y-109800000D02*
X62530000Y-113670000D01*
%TO.N,Net-(U1-V3)*%
X70000000Y-107600000D02*
X71800000Y-105800000D01*
X70000000Y-108050000D02*
X70000000Y-107600000D01*
X71800000Y-105800000D02*
X71800000Y-99060000D01*
X71800000Y-99060000D02*
X71790000Y-99050000D01*
%TO.N,Net-(U1-XI)*%
X78800000Y-108200000D02*
X78800000Y-100980000D01*
X78800000Y-100980000D02*
X76870000Y-99050000D01*
%TO.N,GND*%
X69760000Y-83600000D02*
X69760000Y-90440000D01*
X69760000Y-90440000D02*
X68600000Y-91600000D01*
X68600000Y-91600000D02*
X68600000Y-97000000D01*
X68200000Y-97400000D02*
X68200000Y-98830000D01*
X68600000Y-97000000D02*
X68200000Y-97400000D01*
X68200000Y-98830000D02*
X67980000Y-99050000D01*
%TO.N,Net-(U1-XI)*%
X74640000Y-83600000D02*
X75000000Y-83960000D01*
X75400000Y-98850000D02*
X75600000Y-99050000D01*
X75000000Y-83960000D02*
X75000000Y-96600000D01*
X75400000Y-97000000D02*
X75400000Y-98850000D01*
X75000000Y-96600000D02*
X75400000Y-97000000D01*
%TD*%
M02*
